<svg xmlns="http://www.w3.org/2000/svg" width="1792" height="1792"><g><title>background</title><rect id="canvas_background" width="582" height="402" x="-1" y="-1" fill="none"/></g><g><title>Layer 1</title><g id="svg_23" fill="#059BBF"><g id="svg_21" transform="matrix(15.951180729257201,0,0,15.844026530320491,-6858.362584661871,-6808.258218783686)"><rect id="svg_19" width="112" height="112" x="430.256" y="430.256" fill="none"/></g><g id="svg_22" transform="matrix(15.951180729257201,0,0,15.844026530320491,-6858.362584661871,-6808.258218783686)"><g id="svg_12"><circle id="svg_17" cx="486.256" cy="486.256" r="55" fill="#059BBF"/><g id="svg_13"><path id="svg_16" fill="#FFF" d="m502.256348,462.256348l-8,0l0,-4c0,-2.209 -1.791,-4 -4,-4l-8,0c-2.209,0 -4,1.791 -4,4l0,4l-8,0c-3.314,0 -6,2.687 -6,6l0,44c0,3.313 2.686,6 6,6l32,0c3.314,0 6,-2.687 6,-6l0,-44c0,-3.313 -2.686,-6 -6,-6z"/><path id="svg_15" fill="#32BEA6" d="m504.256348,512.256348c0,1.105 -0.895,2 -2,2l-32,0c-1.105,0 -2,-0.895 -2,-2l0,-44c0,-1.105 0.895,-2 2,-2l32,0c1.105,0 2,0.895 2,2l0,44z"/><path id="svg_14" fill="#32BEA6" d="m486.256348,466.256348l-16,0c-1.104,0 -2,0.896 -2,2l0,44c0,1.104 0.896,2 2,2l16,0l0,-48z"/></g></g></g></g><path id="svg_1" fill="#d32f2f" d="m1081.97426,1007.50472l0,-254.962153l-181.973851,0l0,452.9562q48.336804,-25.097837 86.518818,-54.577836q95.455034,-73.301619 95.455034,-143.416211zm77.988793,-305.954584l0,305.954584q0,34.260539 -13.60742,67.923511t-33.713905,59.756755t-47.930613,50.793241t-51.383241,41.032972t-49.149188,30.874323t-36.354151,19.719729t-17.263144,7.967567q-4.8743,2.39027 -10.560982,2.39027t-10.560982,-2.39027q-6.499066,-2.788649 -17.263144,-7.967567t-36.354151,-19.719729t-49.149188,-30.874323t-51.383241,-41.032972t-47.930613,-50.793241t-33.713905,-59.756755t-13.60742,-67.923511l0,-305.954584q0,-10.357837 7.717641,-17.927026t18.278623,-7.569189l467.932761,0q10.560982,0 18.278623,7.569189t7.717641,17.927026z"/><g id="svg_31"><g id="svg_30" transform="matrix(2.796872043652932,0,0,4.410344288735855,-392.70018808384157,-1662.6775051993413)"><polygon id="svg_27" fill="#fff" points="490.875 544.998 409.125 609.498 450 609.498 436.375 652.498 518.125 587.998 477.25 587.998"/></g></g></g></svg>